<?xml version="1.0" encoding="UTF-8" standalone="no"?>
<!-- Created with Inkscape (http://www.inkscape.org/) -->

<svg
   width="512"
   height="512"
   viewBox="0 0 135.46667 135.46667"
   version="1.1"
   id="svg5"
   inkscape:version="1.3 (0e150ed6c4, 2023-07-21)"
   sodipodi:docname="thinkfan-icon.svg"
   inkscape:export-filename="/home/bene/Programmierkram/GitHub/thinkfan-ui/linux_packaging/thinkfan-icon.png"
   inkscape:export-xdpi="4.6900001"
   inkscape:export-ydpi="4.6900001"
   xmlns:inkscape="http://www.inkscape.org/namespaces/inkscape"
   xmlns:sodipodi="http://sodipodi.sourceforge.net/DTD/sodipodi-0.dtd"
   xmlns="http://www.w3.org/2000/svg"
   xmlns:svg="http://www.w3.org/2000/svg">
  <sodipodi:namedview
     id="namedview7"
     pagecolor="#ffffff"
     bordercolor="#999999"
     borderopacity="1"
     inkscape:pageshadow="0"
     inkscape:pageopacity="0"
     inkscape:pagecheckerboard="0"
     inkscape:document-units="px"
     showgrid="false"
     inkscape:snap-bbox="true"
     inkscape:snap-page="true"
     inkscape:snap-object-midpoints="true"
     inkscape:snap-global="true"
     inkscape:bbox-paths="false"
     inkscape:bbox-nodes="true"
     inkscape:snap-bbox-edge-midpoints="false"
     inkscape:snap-bbox-midpoints="false"
     inkscape:snap-nodes="false"
     inkscape:zoom="1.8727282"
     inkscape:cx="232.81542"
     inkscape:cy="256.04356"
     inkscape:window-width="3440"
     inkscape:window-height="1373"
     inkscape:window-x="0"
     inkscape:window-y="0"
     inkscape:window-maximized="1"
     inkscape:current-layer="layer1"
     inkscape:showpageshadow="0"
     inkscape:deskcolor="#d1d1d1" />
  <defs
     id="defs2" />
  <g
     inkscape:label="Ebene 1"
     inkscape:groupmode="layer"
     id="layer1"
     style="display:inline">
    <circle
       style="fill:#ff0003;fill-opacity:1;stroke-width:0.394482"
       id="path1667"
       cx="67.733337"
       cy="67.733337"
       r="67.733337" />
    <g
       transform="matrix(0.01087886,0,0,-0.01087886,13.339149,69.038321)"
       id="g3726">
      <path
         d="m 4622.5,5010.7 c -172.5,-17.3 -533,-76.7 -544.5,-88.2 -3.8,-3.8 13.4,-7.7 38.3,-7.7 149.5,-1.9 628.8,-42.2 784.1,-69 255,-42.2 651.8,-147.6 885.7,-233.9 157.2,-59.4 692.1,-297.1 722.8,-322.1 3.8,-3.8 -42.2,-59.4 -101.6,-126.5 -57.5,-67.1 -151.5,-195.5 -205.1,-289.5 -72.9,-120.8 -109.3,-164.9 -130.4,-157.2 -337.4,103.5 -715.1,149.5 -1133,138 -279.9,-7.7 -636.5,-49.8 -665.2,-76.7 -3.8,-3.8 116.9,-13.4 266.5,-19.2 322.1,-11.5 605.8,-63.3 914.5,-164.9 226.2,-74.8 538.7,-209 538.7,-230 0,-7.7 -86.3,-287.6 -191.7,-623.1 -107.4,-335.5 -189.8,-619.2 -187.9,-628.8 3.8,-9.6 76.7,-46 161,-78.6 302.9,-122.7 611.6,-350.8 811,-598.1 241.6,-301 350.8,-542.5 450.5,-991.2 5.7,-26.8 1850,949 1980.4,1046.7 324,247.3 565.5,676.7 648,1150.3 136.1,789.9 -264.6,1583.5 -989.2,1957.4 -477.4,247.3 -1041,274.1 -1554.8,72.8 l -130.3,-49.8 -214.7,82.4 c -354.7,138 -684.4,224.3 -1060.1,279.9 -228.4,34.7 -876.4,50 -1093,27 z"
         id="path3716" />
      <path
         d="M 1848.4,4790.2 C 1072,4642.6 479.6,4044.5 337.7,3262.3 307,3095.5 310.9,2746.6 345.4,2585.6 360.7,2510.8 401,2374.7 433.6,2282.7 L 495,2114 399.1,1860.9 C 287.9,1567.6 184.4,1168.8 134.5,841 107.7,668.4 100,503.6 100,179.6 c 0,-410.3 11.5,-544.5 78.6,-910.6 l 15.3,-76.7 11.5,105.4 c 7.7,57.5 13.4,162.9 15.3,233.9 5.8,350.8 132.3,975.8 279.9,1366.9 55.6,151.4 302.9,703.6 327.8,736.2 3.8,3.8 57.5,-40.3 122.7,-95.9 116.9,-105.4 393,-283.7 437.1,-285.6 28.8,0 30.7,11.5 -24.9,-199.4 -82.4,-322.1 -111.2,-594.3 -99.7,-979.6 7.7,-287.6 49.8,-646.1 76.7,-674.8 3.8,-3.8 13.4,120.8 19.2,276.1 13.5,331.5 72.9,645.9 178.3,946.9 76.7,220.5 197.5,496.5 216.6,496.5 7.7,0 289.5,-86.3 625,-191.7 335.5,-105.4 619.2,-189.8 628.8,-186 9.6,1.9 40.3,67.1 70.9,143.8 255,653.7 862.7,1144.5 1575.9,1273 26.8,3.8 -59.4,185.9 -452.4,939.4 -268.4,513.8 -527.2,985.4 -575.1,1046.7 -222.4,291.4 -575.1,510 -989.2,615.4 -214.8,55.6 -584.8,69.1 -789.9,30.7 z"
         id="path3718" />
      <path
         d="M 4756.7,1770.8 C 4091.4,1667.2 3558.5,1188 3384,534.2 c -57.5,-214.7 -59.4,-607.7 -1.9,-818.6 140,-513.8 496.5,-927.9 972,-1125.3 232,-97.8 373.8,-124.6 651.8,-122.7 301,1.9 469.7,40.3 730.4,170.6 419.9,207.1 749.6,611.6 872.3,1071.7 53.7,199.4 59.4,586.6 11.5,782.2 -151.5,615.4 -615.4,1087 -1217.4,1242.3 -172.5,44 -483.1,61.3 -646,36.4 z M 5220.6,605.2 c 116.9,-61.3 184,-124.6 245.4,-237.7 47.9,-86.3 55.6,-122.7 55.6,-245.4 0,-122.7 -7.7,-159.1 -55.6,-245.4 -103.5,-191.7 -253.1,-279.9 -469.7,-279.9 -216.6,0 -364.3,88.2 -469.7,279.9 -49.8,88.2 -57.5,120.8 -55.6,245.4 0,149.5 23,214.7 116.9,339.3 49.8,69 186,155.3 279.9,180.2 95.9,24.9 266.5,5.7 352.8,-36.4 z"
         id="path3720" />
      <path
         d="m 9777.6,1055.7 c 19.2,-59.4 -24.9,-644.2 -65.2,-876.1 -82.5,-460.1 -201.3,-830.1 -421.8,-1303.6 -67.1,-141.9 -122.7,-262.7 -126.5,-266.5 -3.9,-3.8 -59.5,42.2 -126.6,101.6 -67.1,57.5 -195.5,151.4 -289.5,205.1 -120.8,72.8 -164.9,109.3 -157.2,130.4 103.5,337.4 149.5,715.1 138,1133 -7.7,279.9 -49.8,636.5 -76.7,665.2 -3.8,3.8 -13.4,-120.8 -19.2,-276.1 -13.4,-331.7 -72.8,-646.1 -178.3,-947.1 -74.8,-216.6 -197.5,-496.5 -216.7,-496.5 -7.7,0 -287.6,86.3 -623.1,191.7 -335.5,107.3 -619.2,189.8 -628.8,187.9 -9.6,-3.8 -46,-76.7 -78.6,-161 -122.7,-302.9 -350.8,-611.6 -598.1,-810.9 -299.1,-239.6 -557.9,-358.5 -991.2,-450.5 -26.8,-5.8 960.5,-1873 1054.4,-1991.9 232,-299.1 642.2,-534.9 1087,-628.8 170.6,-38.3 584.7,-32.6 753.4,7.6 571.6,136.2 1020.2,490.8 1269.5,1000.8 136.1,278 174.4,429.4 185.9,740 11.5,310.6 -7.7,448.6 -103.5,726.6 l -69,201.3 92,228.1 c 299.1,757.2 387.2,1644.9 247.3,2484.6 -17.3,99.7 -38.3,195.5 -49.9,210.9 -15.3,23 -15.3,21 -7.6,-5.8 z"
         id="path3722" />
      <path
         d="m 2159,-598.8 c -437.1,-228.1 -878,-458.2 -977.7,-511.9 -467.8,-255 -799.4,-784.1 -866.5,-1384.1 -88.2,-776.4 325.9,-1526 1029.5,-1869.2 281.8,-138.1 429.4,-174.5 749.6,-186 301,-11.5 485,15.4 713.2,101.6 195.5,74.8 193.6,74.8 435.2,-21.1 755.3,-299.1 1644.9,-387.3 2482.7,-247.3 99.7,17.3 195.5,38.3 210.9,49.8 21.1,13.4 17.2,15.4 -15.4,7.7 -70.9,-13.4 -626.9,23 -828.2,57.5 -266.5,44.1 -651.8,145.7 -881.9,233.9 -166.8,61.4 -697.8,299.1 -726.6,324 -5.8,3.9 21.1,38.3 59.4,78.6 90.1,93.9 205.1,256.9 281.8,393 46,80.5 70.9,107.4 93.9,101.6 339.3,-105.4 715.1,-151.5 1134.9,-140 279.9,7.7 636.5,49.9 665.2,76.7 3.8,3.9 -116.9,13.4 -266.5,19.2 -322.1,11.5 -605.8,63.3 -914.4,164.9 -228.1,74.7 -538.7,208.9 -538.7,230.1 0,7.6 86.3,287.6 191.7,625 107.4,335.5 189.8,617.3 187.9,626.9 -3.8,9.6 -69,42.2 -145.7,72.9 -653.7,255 -1144.5,860.8 -1273,1575.9 -3.8,26.8 -159.1,-46.1 -801.3,-379.7 z"
         id="path3724" />
    </g>
  </g>
</svg>
