<svg id="svg5" width="512" height="512" version="1.1" viewBox="0 0 135 135" xmlns="http://www.w3.org/2000/svg">
	<g id="layer1">
		<circle id="path1667" cx="67.7" cy="67.7" r="67.7" fill="#ef2e31" stroke-width=".394"/>
		<g id="g3726" transform="matrix(.0109 0 0 -.0109 13.3 69)">
			<path id="path3716" d="m4622 5011c-172-17.3-533-76.7-544-88.2-3.8-3.8 13.4-7.7 38.3-7.7 150-1.9 629-42.2 784-69 255-42.2 652-148 886-234 157-59.4 692-297 723-322 3.8-3.8-42.2-59.4-102-126-57.5-67.1-152-196-205-290-72.9-121-109-165-130-157-337 104-715 150-1133 138-280-7.7-636-49.8-665-76.7-3.8-3.8 117-13.4 266-19.2 322-11.5 606-63.3 914-165 226-74.8 539-209 539-230 0-7.7-86.3-288-192-623-107-336-190-619-188-629 3.8-9.6 76.7-46 161-78.6 303-123 612-351 811-598 242-301 351-542 450-991 5.7-26.8 1850 949 1980 1047 324 247 566 677 648 1150 136 790-265 1584-989 1957-477 247-1041 274-1555 72.8l-130-49.8-215 82.4c-355 138-684 224-1060 280-228 34.7-876 50-1093 27z"/>
			<path id="path3718" d="m1848 4790c-776-148-1369-746-1511-1528-30.7-167-26.8-516 7.7-677 15.3-74.8 55.6-211 88.2-303l61.4-169-95.9-253c-111-293-215-692-265-1020-26.8-173-34.5-337-34.5-661 0-410 11.5-544 78.6-911l15.3-76.7 11.5 105c7.7 57.5 13.4 163 15.3 234 5.8 351 132 976 280 1367 55.6 151 303 704 328 736 3.8 3.8 57.5-40.3 123-95.9 117-105 393-284 437-286 28.8 0 30.7 11.5-24.9-199-82.4-322-111-594-99.7-980 7.7-288 49.8-646 76.7-675 3.8-3.8 13.4 121 19.2 276 13.5 332 72.9 646 178 947 76.7 220 198 496 217 496 7.7 0 290-86.3 625-192s619-190 629-186c9.6 1.9 40.3 67.1 70.9 144 255 654 863 1144 1576 1273 26.8 3.8-59.4 186-452 939-268 514-527 985-575 1047-222 291-575 510-989 615-215 55.6-585 69.1-790 30.7z"/>
			<path id="path3720" d="m4757 1771c-665-104-1198-583-1373-1237-57.5-215-59.4-608-1.9-819 140-514 496-928 972-1125 232-97.8 374-125 652-123 301 1.9 470 40.3 730 171 420 207 750 612 872 1072 53.7 199 59.4 587 11.5 782-152 615-615 1087-1217 1242-172 44-483 61.3-646 36.4zm464-1166c117-61.3 184-125 245-238 47.9-86.3 55.6-123 55.6-245s-7.7-159-55.6-245c-104-192-253-280-470-280s-364 88.2-470 280c-49.8 88.2-57.5 121-55.6 245 0 150 23 215 117 339 49.8 69 186 155 280 180 95.9 24.9 266 5.7 353-36.4z"/>
			<path id="path3722" d="m9778 1056c19.2-59.4-24.9-644-65.2-876-82.5-460-201-830-422-1304-67.1-142-123-263-126-266-3.9-3.8-59.5 42.2-127 102-67.1 57.5-196 151-290 205-121 72.8-165 109-157 130 104 337 150 715 138 1133-7.7 280-49.8 636-76.7 665-3.8 3.8-13.4-121-19.2-276-13.4-332-72.8-646-178-947-74.8-217-198-496-217-496-7.7 0-288 86.3-623 192-336 107-619 190-629 188-9.6-3.8-46-76.7-78.6-161-123-303-351-612-598-811-299-240-558-358-991-450-26.8-5.8 960-1873 1054-1992 232-299 642-535 1087-629 171-38.3 585-32.6 753 7.6 572 136 1020 491 1270 1e3 136 278 174 429 186 740s-7.7 449-104 727l-69 201 92 228c299 757 387 1645 247 2485-17.3 99.7-38.3 196-49.9 211-15.3 23-15.3 21-7.6-5.8z"/>
			<path id="path3724" d="m2159-599c-437-228-878-458-978-512-468-255-799-784-866-1384-88.2-776 326-1526 1030-1869 282-138 429-174 750-186 301-11.5 485 15.4 713 102 196 74.8 194 74.8 435-21.1 755-299 1645-387 2483-247 99.7 17.3 196 38.3 211 49.8 21.1 13.4 17.2 15.4-15.4 7.7-70.9-13.4-627 23-828 57.5-266 44.1-652 146-882 234-167 61.4-698 299-727 324-5.8 3.9 21.1 38.3 59.4 78.6 90.1 93.9 205 257 282 393 46 80.5 70.9 107 93.9 102 339-105 715-152 1135-140 280 7.7 636 49.9 665 76.7 3.8 3.9-117 13.4-266 19.2-322 11.5-606 63.3-914 165-228 74.7-539 209-539 230 0 7.6 86.3 288 192 625 107 336 190 617 188 627-3.8 9.6-69 42.2-146 72.9-654 255-1144 861-1273 1576-3.8 26.8-159-46.1-801-380z"/>
		</g>
	</g>
</svg>
